<svg xmlns="http://www.w3.org/2000/svg" viewBox="0 0 24 24" fill="#f57c00">
  <circle cx="12" cy="12" r="10" stroke="#e65100" stroke-width="1" fill="#ff9800"/>
  <path d="M12 2C6.48 2 2 6.48 2 12s4.48 10 10 10 10-4.48 10-10S17.52 2 12 2zm0 18c-4.41 0-8-3.59-8-8s3.59-8 8-8 8 3.59 8 8-3.59 8-8 8z" fill="#e65100"/>
  <path d="M12 2v20M2 12h20" stroke="#e65100" stroke-width="0.5"/>
  <path d="M5 5c3.5 3.5 3.5 10.5 0 14M19 5c-3.5 3.5-3.5 10.5 0 14" stroke="#e65100" stroke-width="0.5" fill="none"/>
</svg>
